<svg width="32" height="32" viewBox="0 0 32 32" fill="none" xmlns="http://www.w3.org/2000/svg">
  <!-- Thyme sprig logo - stylized herb leaf design -->
  <!-- Central stem with curved path -->
  <path
    d="M16 28C16 28 16 8 16 6"
    stroke="#00D26A"
    stroke-width="2"
    stroke-linecap="round"
  />

  <!-- Leaf pairs - bottom to top, larger to smaller -->
  <!-- Bottom pair -->
  <ellipse cx="10" cy="22" rx="4" ry="2.5" fill="#00D26A" transform="rotate(-35 10 22)"/>
  <ellipse cx="22" cy="22" rx="4" ry="2.5" fill="#00D26A" transform="rotate(35 22 22)"/>

  <!-- Second pair -->
  <ellipse cx="11" cy="17" rx="3.5" ry="2" fill="#00D26A" transform="rotate(-40 11 17)"/>
  <ellipse cx="21" cy="17" rx="3.5" ry="2" fill="#00D26A" transform="rotate(40 21 17)"/>

  <!-- Third pair -->
  <ellipse cx="12" cy="12" rx="3" ry="1.8" fill="#00D26A" transform="rotate(-45 12 12)"/>
  <ellipse cx="20" cy="12" rx="3" ry="1.8" fill="#00D26A" transform="rotate(45 20 12)"/>

  <!-- Top pair (smallest) -->
  <ellipse cx="13" cy="8" rx="2.5" ry="1.5" fill="#00D26A" transform="rotate(-50 13 8)"/>
  <ellipse cx="19" cy="8" rx="2.5" ry="1.5" fill="#00D26A" transform="rotate(50 19 8)"/>

  <!-- Tip leaf -->
  <ellipse cx="16" cy="5" rx="2" ry="1.2" fill="#00D26A"/>
</svg>
