<svg width="1200" height="630" viewBox="0 0 1200 630" fill="none" xmlns="http://www.w3.org/2000/svg">
  <defs>
    <linearGradient id="bgGradient" x1="0%" y1="0%" x2="100%" y2="100%">
      <stop offset="0%" style="stop-color:#020617"/>
      <stop offset="50%" style="stop-color:#0f172a"/>
      <stop offset="100%" style="stop-color:#020617"/>
    </linearGradient>
    <radialGradient id="glowGradient" cx="50%" cy="50%" r="50%">
      <stop offset="0%" style="stop-color:rgba(0,210,106,0.15)"/>
      <stop offset="70%" style="stop-color:transparent"/>
    </radialGradient>
    <filter id="greenGlow" x="-50%" y="-50%" width="200%" height="200%">
      <feGaussianBlur stdDeviation="15" result="coloredBlur"/>
      <feMerge>
        <feMergeNode in="coloredBlur"/>
        <feMergeNode in="SourceGraphic"/>
      </feMerge>
    </filter>
  </defs>

  <!-- Background -->
  <rect width="1200" height="630" fill="url(#bgGradient)"/>

  <!-- Grid pattern -->
  <g opacity="0.3">
    <pattern id="grid" width="60" height="60" patternUnits="userSpaceOnUse">
      <path d="M 60 0 L 0 0 0 60" fill="none" stroke="#1e293b" stroke-width="1"/>
    </pattern>
    <rect width="1200" height="630" fill="url(#grid)"/>
  </g>

  <!-- Glow effect -->
  <ellipse cx="600" cy="315" rx="400" ry="400" fill="url(#glowGradient)"/>

  <!-- Logo box with glow -->
  <g filter="url(#greenGlow)">
    <rect x="478" y="160" width="80" height="80" rx="16" fill="#00D26A"/>
  </g>

  <!-- Thyme sprig icon - angled 45 degrees, white on green -->
  <g transform="translate(518, 200) rotate(-45 0 0)">
    <path d="M0 50 Q-3 35 0 18 Q2 8 6 -5" stroke="white" stroke-width="4.5" stroke-linecap="round" fill="none"/>
    <circle cx="-6" cy="40" r="5.5" fill="white"/>
    <circle cx="5" cy="33" r="4.5" fill="white"/>
    <circle cx="-5" cy="24" r="4.5" fill="white"/>
    <circle cx="4" cy="14" r="4" fill="white"/>
    <circle cx="-3" cy="6" r="3.5" fill="white"/>
    <circle cx="5" cy="-2" r="3" fill="white"/>
  </g>

  <!-- Thyme text -->
  <text x="570" y="210" font-family="Inter, system-ui, sans-serif" font-size="64" font-weight="700" fill="white" letter-spacing="-1">Thyme</text>

  <!-- by KnowAll.ai -->
  <text x="570" y="240" font-family="Inter, system-ui, sans-serif" font-size="24" fill="#94a3b8">by KnowAll.ai</text>

  <!-- Tagline -->
  <text x="600" y="320" font-family="Inter, system-ui, sans-serif" font-size="42" font-weight="600" fill="white" text-anchor="middle">Time Tracking,</text>
  <text x="600" y="370" font-family="Inter, system-ui, sans-serif" font-size="42" font-weight="600" fill="#00D26A" text-anchor="middle">Perfectly Synced</text>

  <!-- Subtitle badge -->
  <rect x="290" y="420" width="620" height="48" rx="24" fill="rgba(30,41,59,0.6)" stroke="#334155" stroke-width="1"/>

  <!-- Microsoft logo -->
  <g transform="translate(320, 432)">
    <rect x="0" y="0" width="11" height="11" fill="#F25022"/>
    <rect x="13" y="0" width="11" height="11" fill="#7FBA00"/>
    <rect x="0" y="13" width="11" height="11" fill="#00A4EF"/>
    <rect x="13" y="13" width="11" height="11" fill="#FFB900"/>
  </g>

  <!-- Powered by text -->
  <text x="360" y="451" font-family="Inter, system-ui, sans-serif" font-size="20" fill="#cbd5e1">Powered by Microsoft Dynamics 365 Business Central</text>
</svg>
